PathFileType	3	(X/Y/Z)	D:\VICON_DB\Goncalves\Pilot01\09-03-2026\static_01.trc
DataRate	CameraRate	NumFrames	NumMarkers	Units	OrigDataRate	OrigDataStartFrame	OrigNumFrames
200.0	200.0	6	40	mm	200.0	81	321
Frame#	Time	LASI			RASI			LPSI			RPSI			LTHI			LTHAP			LTHAD			LKNE			LKNM			LTIB			LTIAP			LTIAD			LANK			LMED			LHEE			LTOE			LFMH			LSMH			LVMH			RTHI			RTHAP			RTHAD			RKNE			RKNM			RTIB			RTIAP			RTIAD			RANK			RMED			RHEE			RTOE			RFMH			RSMH			RVMH			RHJC			LHJC			RKJC			LKJC			RAJC			LAJC
		X1	Y1	Z1	X2	Y2	Z2	X3	Y3	Z3	X4	Y4	Z4	X5	Y5	Z5	X6	Y6	Z6	X7	Y7	Z7	X8	Y8	Z8	X9	Y9	Z9	X10	Y10	Z10	X11	Y11	Z11	X12	Y12	Z12	X13	Y13	Z13	X14	Y14	Z14	X15	Y15	Z15	X16	Y16	Z16	X17	Y17	Z17	X18	Y18	Z18	X19	Y19	Z19	X20	Y20	Z20	X21	Y21	Z21	X22	Y22	Z22	X23	Y23	Z23	X24	Y24	Z24	X25	Y25	Z25	X26	Y26	Z26	X27	Y27	Z27	X28	Y28	Z28	X29	Y29	Z29	X30	Y30	Z30	X31	Y31	Z31	X32	Y32	Z32	X33	Y33	Z33	X34	Y34	Z34	X35	Y35	Z35	X36	Y36	Z36	X37	Y37	Z37	X38	Y38	Z38	X39	Y39	Z39	X40	Y40	Z40
81	0.400000	120.977240	904.053650	-1066.123500	117.910220	905.586120	-1331.591600	302.979030	957.700070	-1182.370100	312.209500	954.256410	-1231.074000	126.768190	694.402530	-1034.031400	144.458340	768.079040	-1020.596100	170.370120	630.215450	-1009.636300	222.350110	474.819060	-1025.682100	199.592790	464.591280	-1153.773100	258.986790	281.593780	-1005.171900	202.045530	357.274870	-1060.990400	217.220340	254.909480	-1033.167600	272.707550	70.413094	-1027.465500	239.550720	80.922501	-1108.096200	315.075560	61.600159	-1080.562100	191.320250	71.881248	-1047.602400	134.162120	44.887871	-1073.226100	133.824920	39.297169	-1032.941400	149.171040	25.674704	-993.105770	162.061900	626.283870	-1383.262000	125.616620	752.774230	-1359.817600	109.040210	661.259400	-1337.596900	209.677930	490.900050	-1366.092900	207.369260	434.532140	-1245.698100	228.531680	296.313750	-1384.044300	189.365420	346.744350	-1329.280200	194.317060	265.431640	-1331.890600	269.067050	61.932278	-1356.343300	233.816420	90.172188	-1276.460700	305.127960	57.774555	-1314.307600	176.733120	69.054550	-1340.594600	126.323340	49.386639	-1315.364100	123.985760	40.552975	-1351.459200	139.726230	20.482935	-1389.120800	196.820815	832.858261	-1295.086615	199.013712	831.762556	-1105.278886	208.523595	462.716095	-1305.895500	210.971450	469.705170	-1089.727600	251.441735	76.052233	-1316.402000	256.129135	75.667798	-1067.780850
82	0.405000	121.012320	904.060910	-1066.101000	117.917300	905.609680	-1331.563500	302.785000	957.617070	-1182.740100	312.272920	954.256960	-1231.047700	126.793160	694.407900	-1033.985200	144.500020	768.083010	-1020.548300	170.408330	630.212220	-1009.609600	222.366290	474.804320	-1025.662500	199.620150	464.586880	-1153.741500	258.999600	281.583310	-1005.151400	202.066250	357.278410	-1060.968500	217.245420	254.914670	-1033.144200	273.169040	70.202362	-1027.362800	239.566160	80.908287	-1108.093500	315.076900	61.610756	-1080.570200	191.293330	71.860535	-1047.620700	134.165120	44.882927	-1073.214200	133.814270	39.291039	-1032.961500	149.178150	25.651894	-993.111150	162.096120	626.239870	-1383.250000	125.626550	752.792300	-1359.780600	109.036240	661.259580	-1337.592700	209.681380	490.887630	-1366.045700	207.272290	434.563510	-1245.680700	228.531770	296.326350	-1384.012800	189.354630	346.754360	-1329.245000	194.378570	265.399660	-1331.906000	269.063810	61.935215	-1356.332200	233.808410	90.172508	-1276.455000	305.120180	57.788292	-1314.316200	176.752500	69.090698	-1340.558200	126.314960	49.402107	-1315.378200	123.980510	40.554020	-1351.467400	139.987840	20.332932	-1388.828900	196.797723	832.861622	-1295.071919	199.010643	831.754261	-1105.267909	208.476835	462.725570	-1305.863200	210.993220	469.695600	-1089.702000	251.436110	76.053861	-1316.393600	256.367600	75.555324	-1067.728150
83	0.410000	121.055500	904.062990	-1066.060300	117.946840	905.602970	-1331.519400	302.687010	957.515080	-1182.680200	312.278590	954.220280	-1231.025800	126.829310	694.420170	-1033.930900	144.541930	768.084530	-1020.514700	170.450300	630.209350	-1009.568500	222.410200	474.802550	-1025.654300	199.640490	464.600800	-1153.721300	259.013890	281.591310	-1005.140900	202.126300	357.258970	-1060.886600	217.266250	254.914860	-1033.126100	272.795290	70.267311	-1027.476400	239.559970	80.911659	-1108.085900	315.071720	61.590191	-1080.564700	191.318680	71.873192	-1047.653400	134.179140	44.885925	-1073.206500	133.828160	39.299335	-1032.941200	149.187840	25.638311	-993.124510	162.103560	626.260680	-1383.223100	125.620830	752.780460	-1359.765600	109.036250	661.265260	-1337.585000	209.683840	490.902740	-1366.024700	207.315090	434.557620	-1245.627900	228.491740	296.333280	-1384.036500	189.345340	346.745540	-1329.239700	194.375000	265.391780	-1331.874500	269.070500	61.942417	-1356.327000	233.800230	90.168877	-1276.446000	305.125180	57.782547	-1314.309400	176.758440	69.086945	-1340.571300	126.305090	49.397400	-1315.384400	123.977130	40.552696	-1351.471700	139.966110	20.335022	-1388.823200	196.790452	832.833734	-1295.029716	199.013126	831.732657	-1105.227957	208.499465	462.730180	-1305.826300	211.025345	469.701675	-1089.687800	251.435365	76.055647	-1316.386500	256.177630	75.589485	-1067.781150
84	0.415000	121.090820	904.086490	-1066.022200	117.971950	905.588130	-1331.453700	302.473020	957.526000	-1183.130000	312.294100	954.224300	-1230.991800	126.855870	694.423890	-1033.898800	144.571690	768.106870	-1020.473100	170.476010	630.214720	-1009.537200	222.420290	474.817780	-1025.613400	199.656630	464.612580	-1153.691800	259.073820	281.598180	-1005.102100	202.131440	357.285190	-1060.909800	217.285770	254.915020	-1033.104900	272.816620	70.281792	-1027.457400	239.541050	80.939018	-1108.102500	315.073390	61.596390	-1080.562400	191.429520	71.907555	-1047.580900	134.170810	44.881783	-1073.215800	133.828430	39.291729	-1032.942700	149.188370	25.657295	-993.114690	162.149990	626.226010	-1383.160300	125.642260	752.795780	-1359.744900	109.060950	661.251160	-1337.519700	209.650120	490.931270	-1366.010700	207.387680	434.499420	-1245.611900	228.495860	296.349180	-1384.020500	189.333620	346.749110	-1329.231100	194.344830	265.407100	-1331.893200	269.064300	61.929836	-1356.340500	233.794600	90.170662	-1276.444300	305.145450	57.760567	-1314.288500	176.746510	69.080231	-1340.577800	126.315760	49.401833	-1315.382100	123.984810	40.552555	-1351.466100	139.963290	20.343765	-1388.825600	196.801944	832.839516	-1294.961123	199.031937	831.765843	-1105.177575	208.518900	462.715345	-1305.811300	211.038460	469.715180	-1089.652600	251.429450	76.050249	-1316.392400	256.178835	75.610405	-1067.779950
85	0.420000	121.119100	904.094540	-1065.986000	117.981360	905.591250	-1331.412600	302.240020	957.375060	-1183.340100	312.325440	954.208860	-1230.955400	126.890870	694.429810	-1033.841300	144.589070	768.115360	-1020.440600	170.504560	630.221250	-1009.498700	222.455540	474.823910	-1025.595300	199.676480	464.621580	-1153.680500	259.083890	281.603970	-1005.108500	202.149020	357.269320	-1060.903400	217.292510	254.919330	-1033.093900	272.698300	70.405312	-1027.446400	239.559080	80.937675	-1108.093400	315.082030	61.595463	-1080.568400	191.308720	71.911041	-1047.654700	134.163160	44.895679	-1073.233400	133.829820	39.311539	-1032.946500	149.195080	25.661568	-993.108580	162.117310	626.242490	-1383.177100	125.818820	752.787480	-1359.516800	109.214260	661.204900	-1337.267200	209.658630	490.917300	-1365.973800	207.240690	434.583440	-1245.606000	228.490080	296.344480	-1383.994600	189.336440	346.744230	-1329.196000	194.301700	265.433500	-1331.843100	269.067780	61.938911	-1356.330800	233.809140	90.171349	-1276.446500	305.136230	57.771049	-1314.293200	176.753160	69.076836	-1340.599600	126.305430	49.421425	-1315.393600	123.971640	40.565384	-1351.466400	139.964110	20.358376	-1388.829700	196.762104	832.814038	-1294.924652	199.005591	831.743889	-1105.144348	208.449660	462.750370	-1305.789900	211.066010	469.722745	-1089.637900	251.438460	76.055130	-1316.388650	256.128690	75.671493	-1067.769900
86	0.425000	121.152660	904.116390	-1065.938200	117.962360	905.610110	-1331.424000	302.053040	957.239010	-1183.189900	312.372070	954.229190	-1230.908700	126.914280	694.447630	-1033.806200	144.616760	768.134640	-1020.373000	170.540370	630.229740	-1009.462200	222.493840	474.829990	-1025.559400	199.690780	464.640320	-1153.648900	259.118800	281.630550	-1005.069700	202.166290	357.281370	-1060.886000	217.317030	254.931560	-1033.083000	272.806120	70.278221	-1027.465700	239.552310	80.941055	-1108.076700	315.093870	61.599648	-1080.553500	191.282750	71.868195	-1047.633900	134.190440	44.900990	-1073.200400	133.837110	39.321686	-1032.941400	149.200360	25.657816	-993.119020	161.764910	626.612000	-1383.167100	125.837270	752.756230	-1359.480300	109.102110	661.260740	-1337.401900	209.643260	490.919650	-1365.941800	207.284670	434.546660	-1245.576200	228.507510	296.334380	-1383.981400	189.324490	346.761050	-1329.170700	194.367050	265.425990	-1331.847700	269.064030	61.945541	-1356.323500	233.813660	90.178993	-1276.438700	305.137760	57.767864	-1314.296000	176.746290	69.099747	-1340.600300	126.285790	49.423393	-1315.416100	123.972700	40.564697	-1351.466600	140.060840	20.199993	-1388.806600	196.711841	832.787825	-1294.940155	198.992870	831.719832	-1105.120812	208.463965	462.733155	-1305.759000	211.092310	469.735155	-1089.604150	251.438845	76.062267	-1316.381100	256.179215	75.609638	-1067.771200
